# xmcd CD database file
#
# Track frame offsets:
#	150
#	28697
#	48335
#	73314
#	109811
#	131959
#	157215
#	182369
#	196056
#	216883
#	234004
#	259784
#	280204
#	303819
#
# Disc length: 4753 seconds
#
# Revision: 0
# Processed by: cddbd v1.5.2PL0 Copyright (c) Steve Scherf et al.
# Submitted via: CDex 1.51
#
DISCID=c7128f0e
DTITLE=Richard Koechli - Live - Still Howlin'
DYEAR=2013
DGENRE=Blues
TTITLE0=Easy Road
TTITLE1=Won`t You Be My Stavior
TTITLE2=You Got To Move
TTITLE3=After Midnight
TTITLE4=In The Spirit
TTITLE5=Key To The Highway
TTITLE6=Leave Your Toys At Home
TTITLE7=Blues-Police Song
TTITLE8=Before You Accuse Me
TTITLE9=Freight Train
TTITLE10=It Hurts Me Too
TTITLE11=Blues Stay Away From Me
TTITLE12=Mystery Train
TTITLE13=Howlin' With The Bas Boys
EXTD=YEAR: 2013
EXTT0=
EXTT1=
EXTT2=
EXTT3=
EXTT4=
EXTT5=
EXTT6=
EXTT7=
EXTT8=
EXTT9=
EXTT10=
EXTT11=
EXTT12=
EXTT13=
PLAYORDER=
